<?xml version="1.0" encoding="utf-8"?>
<!-- Generator: Adobe Illustrator 22.1.0, SVG Export Plug-In . SVG Version: 6.00 Build 0)  -->
<svg version="1.1" id="Layer_1" xmlns="http://www.w3.org/2000/svg" xmlns:xlink="http://www.w3.org/1999/xlink" x="0px" y="0px"
	 viewBox="0 0 346.9 300" style="enable-background:new 0 0 346.9 300;" xml:space="preserve">
<style type="text/css">
	.st0{fill:#2175A5;}
	.st1{fill:#1D5B77;}
	.st2{fill:#2DD8B0;}
	.st3{fill:#A0F7C6;}
</style>
<g>
	<g>
		<path class="st0" d="M68.9,295.3c-35.4,0-64.2-28.8-64.2-64.2V68.9c0-35.4,28.8-64.2,64.2-64.2H278c35.4,0,64.2,28.8,64.2,64.2
			V231c0,35.4-28.8,64.2-64.2,64.2L68.9,295.3L68.9,295.3z"/>
		<g>
			<path class="st1" d="M278.1,9.5c15.8,0,30.7,6.2,42,17.5s17.5,26.2,17.5,42v162.1c0,15.8-6.2,30.7-17.5,42s-26.2,17.5-42,17.5
				H68.9c-15.8,0-30.7-6.2-42-17.5s-17.5-26.2-17.5-42V68.9c0-15.8,6.2-30.7,17.5-42s26.2-17.5,42-17.5L278.1,9.5 M278.1,0H68.9
				C31,0,0,31,0,68.9V231c0,38,31,69,68.9,69H278c37.9,0,68.9-31,68.9-68.9V68.9C347,31,316,0,278.1,0L278.1,0z"/>
		</g>
	</g>
	<g>
		<path class="st2" d="M217.6,227.6c-2.5,0-4.8-0.6-7-1.6c-0.2-0.1-0.3-0.2-0.5-0.3l-1.1-0.6l-0.9,0.1c-0.6,0.1-1.2,0.1-1.7,0.1
			c-5.3,0-10.2-3-12.6-7.7l-24-48.4l-24,48.4c-2.4,4.8-7.2,7.7-12.6,7.7c-0.6,0-1.2,0-1.7-0.1l-0.9-0.1l-1.1,0.6
			c-0.2,0.1-0.3,0.2-0.5,0.3c-2.2,1.1-4.6,1.6-7,1.6c-6,0-11.7-3.5-14.3-8.8l-45-90.7c-1.9-3.8-2.2-8.1-0.8-12.2
			c1.4-4,4.2-7.3,8-9.2c2.2-1.1,4.6-1.6,7-1.6c6,0,11.7,3.5,14.3,8.8l35.2,71l24.7-49.7c2.3-4.7,7.3-7.7,12.6-7.7
			c1.8,0,3.5,0.3,5.1,1l1,0.4l1-0.4c1.6-0.6,3.4-1,5.1-1c5.3,0,10.2,3,12.6,7.7l24.7,49.7l35.2-71c2.7-5.4,8.3-8.8,14.3-8.8
			c2.5,0,4.8,0.6,7,1.6c7.9,3.9,11.1,13.5,7.2,21.3l-45,90.7C229.3,224.1,223.7,227.6,217.6,227.6L217.6,227.6z"/>
		<path class="st3" d="M262.7,107.8c2,0,4,0.5,5.8,1.4c6.5,3.2,9.2,11.2,6,17.7l-45,90.7c-2.2,4.5-6.9,7.3-11.9,7.3
			c-2,0-4-0.5-5.8-1.4c-0.1-0.1-0.2-0.1-0.3-0.2l-0.3-0.2l-1.6-0.9l-1.8,0.2c-0.5,0.1-0.9,0.1-1.4,0.1c-4.3,0-8.2-2.4-10.1-6.2
			l-21.5-43.4l-4.9-9.9l-4.9,9.9l-21.5,43.4c-1.9,3.8-5.8,6.2-10.1,6.2c-0.5,0-0.9,0-1.4-0.1l-1.8-0.2l-1.6,0.9l-0.3,0.2
			c-0.1,0.1-0.2,0.1-0.3,0.2c-1.8,0.9-3.8,1.4-5.8,1.4c-5,0-9.7-2.9-11.9-7.3l-45-90.7c-3.2-6.5-0.6-14.5,6-17.7
			c1.8-0.9,3.8-1.4,5.8-1.4c5,0,9.7,2.9,11.9,7.3l32.7,66.1l4.9,9.9l4.9-9.9l22.2-44.8c1.9-3.8,5.8-6.2,10.1-6.2
			c1.4,0,2.8,0.3,4.1,0.8l2,0.8l2-0.8c1.3-0.5,2.7-0.8,4.1-0.8c4.3,0,8.2,2.4,10.1,6.2l22.2,44.8l4.9,9.9l4.9-9.9l32.7-66.1
			C253,110.7,257.7,107.8,262.7,107.8 M262.7,102.3c-6.9,0-13.5,3.8-16.8,10.4l-32.7,66.1L191,133.9c-2.9-5.9-8.8-9.3-15-9.3
			c-2.1,0-4.1,0.4-6.1,1.2c-2-0.8-4.1-1.2-6.1-1.2c-6.2,0-12.1,3.4-15,9.3l-22.2,44.8l-32.7-66.1c-3.2-6.5-9.9-10.4-16.8-10.4
			c-2.8,0-5.6,0.6-8.2,1.9c-9.2,4.6-13,15.8-8.4,25l45,90.7c3.2,6.5,9.9,10.4,16.8,10.4c2.8,0,5.6-0.6,8.2-1.9l0,0
			c0.3-0.2,0.6-0.3,0.9-0.5c0.7,0.1,1.4,0.1,2.1,0.1c6.2,0,12.1-3.4,15-9.3l21.5-43.4l21.5,43.4c2.9,5.9,8.8,9.3,15,9.3
			c0.7,0,1.4,0,2.1-0.1c0.3,0.2,0.6,0.4,0.9,0.5l0,0c2.6,1.3,5.5,1.9,8.2,1.9c6.9,0,13.5-3.8,16.8-10.4l45-90.7
			c4.6-9.2,0.8-20.4-8.4-25l0,0C268.3,103,265.5,102.3,262.7,102.3L262.7,102.3z"/>
	</g>
	<g>
		<circle class="st2" cx="272" cy="99" r="30.5"/>
		<path class="st3" d="M272,74c13.8,0,25,11.2,25,25s-11.2,25-25,25s-25-11.2-25-25S258.2,74,272,74 M272,63c-19.9,0-36,16.1-36,36
			s16.1,36,36,36s36-16.1,36-36S291.9,63,272,63L272,63z"/>
	</g>
	<g>
		<circle class="st2" cx="80" cy="124" r="21.2"/>
		<path class="st3" d="M80,106.6c9.6,0,17.4,7.8,17.4,17.4s-7.8,17.4-17.4,17.4s-17.4-7.8-17.4-17.4S70.4,106.6,80,106.6 M80,99
			c-13.8,0-25,11.2-25,25s11.2,25,25,25s25-11.2,25-25S93.8,99,80,99L80,99z"/>
	</g>
	<g>
		<path class="st2" d="M171.5,154.7c-9.9,0-18.7-5.9-22.4-15.1c-5-12.3,0.9-26.5,13.3-31.5c2.9-1.2,6-1.8,9.1-1.8
			c9.9,0,18.7,5.9,22.4,15.1c5,12.3-0.9,26.5-13.3,31.5C177.7,154.1,174.6,154.7,171.5,154.7L171.5,154.7z"/>
		<path class="st3" d="M171.5,110.7c8.1,0,15.3,4.9,18.4,12.4c2,4.9,2,10.3-0.1,15.2c-2.1,4.9-5.9,8.7-10.8,10.7
			c-2.4,1-4.9,1.5-7.5,1.5c-8.1,0-15.3-4.9-18.4-12.4c-2-4.9-2-10.3,0.1-15.2c2.1-4.9,5.9-8.7,10.8-10.7
			C166.4,111.2,168.9,110.7,171.5,110.7 M171.5,102c-3.6,0-7.2,0.7-10.7,2.1c-14.6,5.9-21.6,22.5-15.7,37.1
			c4.5,11.1,15.2,17.8,26.4,17.8c3.6,0,7.2-0.7,10.7-2.1c14.6-5.9,21.6-22.5,15.7-37.1C193.4,108.7,182.7,102,171.5,102L171.5,102z"
			/>
	</g>
	<g>
		<path class="st2" d="M212.5,239.5c-3.2,0-6.4-0.6-9.4-1.8c-12.8-5.2-18.9-19.8-13.7-32.6c3.9-9.5,12.9-15.6,23.2-15.6
			c3.2,0,6.4,0.6,9.4,1.8c12.8,5.2,18.9,19.8,13.7,32.6C231.8,233.4,222.7,239.5,212.5,239.5z"/>
		<path class="st3" d="M212.5,185v9c2.6,0,5.2,0.5,7.7,1.5c10.5,4.3,15.5,16.3,11.3,26.7c-3.2,7.8-10.6,12.8-19,12.8
			c-2.6,0-5.2-0.5-7.7-1.5c-10.5-4.3-15.5-16.3-11.3-26.7c3.2-7.8,10.6-12.8,19-12.8V185 M212.5,185c-11.6,0-22.7,6.9-27.3,18.4
			c-6.1,15.1,1.1,32.3,16.2,38.4c3.6,1.5,7.4,2.2,11.1,2.2c11.6,0,22.7-6.9,27.3-18.4c6.1-15.1-1.1-32.3-16.2-38.4
			C220,185.7,216.2,185,212.5,185L212.5,185z"/>
	</g>
	<g>
		<path class="st2" d="M127,229.3c-8.3,0-15.7-5-18.9-12.7c-2-5-2-10.6,0.1-15.6s6-8.9,11.1-10.9c2.5-1,5-1.5,7.7-1.5
			c8.3,0,15.7,5,18.9,12.7c2,5,2,10.6-0.1,15.6s-6,8.9-11.1,10.9C132.2,228.8,129.6,229.3,127,229.3L127,229.3z"/>
		<path class="st3" d="M127,192.3c6.8,0,12.9,4.1,15.5,10.4c3.5,8.5-0.6,18.3-9.2,21.7c-2,0.8-4.1,1.2-6.3,1.2
			c-6.8,0-12.9-4.1-15.5-10.4c-1.7-4.1-1.6-8.7,0.1-12.8c1.7-4.1,5-7.3,9.1-9C122.7,192.7,124.8,192.3,127,192.3 M127,185
			c-3,0-6.1,0.6-9,1.8c-12.3,5-18.2,19-13.2,31.3c3.8,9.3,12.8,15,22.2,15c3,0,6.1-0.6,9-1.8c12.3-5,18.2-19,13.2-31.3
			C145.4,190.6,136.5,185,127,185L127,185z"/>
	</g>
</g>
</svg>
